# xmcd
#
# Track frame offsets: 
#        150
#        11886
#        25178
#        38809
#        51054
#        63449
#        81610
#        99311
#        112656
#        125153
#        143496
#        157669
#        173545
#        191592
#        205761
#
# Disc length: 2947 seconds
#
# Revision: 0
# Processed by: cddbd v1.5.2PL0 Copyright (c) Steve Scherf et al.
# Submitted via: ExactAudioCopy v1.3
#
DISCID=bb0b810f
DTITLE=The Indians - The Indians . From The Beginning
DYEAR=1900
DGENRE=Classic Rock
TTITLE0=Wild Blood
TTITLE1=Move It
TTITLE2=Let Me Be There
TTITLE3=Lucky Arms
TTITLE4=Let It Swing Let It Rock and Roll
TTITLE5=For Always
TTITLE6=Love Is All Around
TTITLE7=Take Me To Your Heaven
TTITLE8=She Thinks I Still Care
TTITLE9=Galway To Graceland
TTITLE10=Can't Help Falling In Love
TTITLE11=A Little At A Time
TTITLE12=Love Is All
TTITLE13=Flowers On The Wall
TTITLE14=The Girl From Yesterday
EXTD=
EXTT0=
EXTT1=
EXTT2=
EXTT3=
EXTT4=
EXTT5=
EXTT6=
EXTT7=
EXTT8=
EXTT9=
EXTT10=
EXTT11=
EXTT12=
EXTT13=
EXTT14=
PLAYORDER=
